<svg xmlns="http://www.w3.org/2000/svg" data-name="Layer 1" viewBox="0 0 32 32" id="praying-beads"><path d="M31.39453,27.46436a9.16068,9.16068,0,0,0-2.09961-1.29981,8.48536,8.48536,0,0,0-2.82245-.54169l-.90149-.90179a1.98759,1.98759,0,0,0,1.526-2.7182,1.99793,1.99793,0,0,0-.0382-3.9187,1.97753,1.97753,0,0,0,.19708-.85077,2.00229,2.00229,0,0,0-2-2c-.04126,0-.0799.0097-.12055.01221.00379-.05.01508-.098.01508-.14893a2.00229,2.00229,0,0,0-2-2,1.97261,1.97261,0,0,0-.56726.092,1.9678,1.9678,0,0,0-2.639-1.66785A2.00167,2.00167,0,0,0,17.98242,9.8999c-.04645,0-.0899.01062-.13556.01374A1.96818,1.96818,0,0,0,17.874,9.645a1.997,1.997,0,0,0-1.897-1.98956,1.97571,1.97571,0,0,0,.07422-.51044,1.99861,1.99861,0,0,0-1.66345-1.96594,1.97111,1.97111,0,0,0-2.14545-2.75769A1.99111,1.99111,0,0,0,8.777,1.106a1.98806,1.98806,0,0,0-3.49158.20306A1.98037,1.98037,0,0,0,4.07471.89014a2.002,2.002,0,0,0-2,2A1.9738,1.9738,0,0,0,2.17,3.46826c-.05023-.00378-.09826-.01513-.14947-.01513a1.99317,1.99317,0,0,0-.96979,3.73828,1.99592,1.99592,0,0,0,1.43707,3.38525l.01245-.00128A1.98205,1.98205,0,0,0,5.12408,12.907a2.00086,2.00086,0,0,0,1.96235,1.62769,1.96651,1.96651,0,0,0,.26086-.02637c-.00317.046-.01379.08991-.01379.13672a2.002,2.002,0,0,0,2,2,1.95935,1.95935,0,0,0,.205-.02075,1.97447,1.97447,0,0,0-.10492.60913,1.99723,1.99723,0,0,0,1.69336,1.969,1.97819,1.97819,0,0,0-.19336.844,2.002,2.002,0,0,0,2,2c.03907,0,.0755-.00934.114-.01154a1.97965,1.97965,0,0,0-.0647.4798,2.002,2.002,0,0,0,2,2c.04614,0,.08936-.0105.1347-.01361-.00311.04535-.01361.08856-.01361.1347a1.9969,1.9969,0,0,0,3.1283,1.64856,1.98853,1.98853,0,0,0,3.59784.06842,1.98989,1.98989,0,0,0,2.98169-.97674l.95428.95453a8.49868,8.49868,0,0,0,.54151,2.82183,9.13452,9.13452,0,0,0,1.2998,2.09815,1.488,1.488,0,0,0,1.084.583c.03418.002.06738.00341.10156.00341a1.504,1.504,0,0,0,1.06348-.44091l1.68261-1.68311a1.49676,1.49676,0,0,0-.14453-2.24853ZM21.1601,23.79865a1.99,1.99,0,0,0-2.23908.01324,1.99947,1.99947,0,0,0-1.8175-1.17615c-.046,0-.089.0105-.13422.01355.00311-.04535.01361-.0885.01361-.13464a2.002,2.002,0,0,0-2-2c-.03906,0-.0755.00934-.114.01153a1.96717,1.96717,0,0,0-1.62867-2.44879,1.97815,1.97815,0,0,0,.19336-.844,2.002,2.002,0,0,0-2-2,1.95935,1.95935,0,0,0-.205.02075,1.97458,1.97458,0,0,0,.10492-.60913,2.002,2.002,0,0,0-2-2,1.96482,1.96482,0,0,0-.26087.02637c.00318-.046.0138-.08991.0138-.13672a2.002,2.002,0,0,0-2-2,1.97844,1.97844,0,0,0-.68219.12768A2.00085,2.00085,0,0,0,4.44189,9.03467L4.42944,9.036a1.9561,1.9561,0,0,0-.97186-2.19757A1.93282,1.93282,0,0,0,3.92523,4.875c.05023.00378.09827.01514.14948.01514a1.997,1.997,0,0,0,1.801-1.14551,1.96975,1.96975,0,0,0,2.67932-.234,1.91956,1.91956,0,0,0,1.99951.9112,1.997,1.997,0,0,0,1.66022,1.9342,1.99074,1.99074,0,0,0,1.73352,2.7785A1.97571,1.97571,0,0,0,13.874,9.645a2.002,2.002,0,0,0,2,2c.04657,0,.09027-.01056.136-.01373a1.97042,1.97042,0,0,0-.02716.26861,2.00187,2.00187,0,0,0,1.99951,2,1.97668,1.97668,0,0,0,.6604-.12091,2.00167,2.00167,0,0,0,1.96167,1.62091,1.97255,1.97255,0,0,0,.56726-.092,1.99577,1.99577,0,0,0,1.97864,1.78876c.04126,0,.0799-.0097.12055-.01221-.00379.05-.01508.098-.01508.14893a2.00127,2.00127,0,0,0,1.62677,1.96222,1.94921,1.94921,0,0,0-.048,1.6018,2.00119,2.00119,0,0,0-1.58533,1.92475,1.97534,1.97534,0,0,0-.3089-.03125A1.99537,1.99537,0,0,0,21.1601,23.79865Zm4.086-.04474a1,1,0,1,1,1-1A1.001,1.001,0,0,1,25.24609,23.75391Zm2.43946-3.70752a1,1,0,1,1-1-1A1.001,1.001,0,0,1,27.68555,20.04639Zm-1.42969-2.813a1,1,0,1,1-1-1A1.001,1.001,0,0,1,26.25586,17.2334Zm-2.10547-2.13672a1,1,0,1,1-1-1A1.001,1.001,0,0,1,24.15039,15.09668Zm-2.5459-1.69678a1,1,0,1,1-1-1A1.001,1.001,0,0,1,21.60449,13.3999Zm-2.62207-1.5a.99976.99976,0,1,1-1-1A1.001,1.001,0,0,1,18.98242,11.8999ZM16.874,9.645a1,1,0,1,1-1-1A1.0013,1.0013,0,0,1,16.874,9.645Zm-1.82275-2.5a1,1,0,1,1-1-1A1.0013,1.0013,0,0,1,15.05127,7.145Zm-1.5-2.75488a1,1,0,1,1-1-1A1.0013,1.0013,0,0,1,13.55127,4.39014Zm-3.30566-2.937a1,1,0,1,1-1,1A1.0013,1.0013,0,0,1,10.24561,1.45313ZM7.08643,1.16357a1,1,0,1,1-1,1A1.0013,1.0013,0,0,1,7.08643,1.16357Zm-3.01172.72657a1,1,0,1,1-1,1A1.0013,1.0013,0,0,1,4.07471,1.89014Zm-2.0542,2.563a1,1,0,1,1-1,1A1.0013,1.0013,0,0,1,2.02051,4.45313ZM1.48779,8.57666a1,1,0,1,1,1,1A1.0013,1.0013,0,0,1,1.48779,8.57666Zm1.9541,2.458a1,1,0,1,1,1,1A1.00131,1.00131,0,0,1,3.44189,11.03467Zm2.64454,1.5a1,1,0,1,1,1,1A1.0013,1.0013,0,0,1,6.08643,12.53467ZM8.3335,14.645a1,1,0,1,1,1,1A1.0013,1.0013,0,0,1,8.3335,14.645Zm2.10009,2.58838a1,1,0,1,1,1,1A1.0013,1.0013,0,0,1,10.43359,17.2334Zm1.5,2.813a1,1,0,1,1,1,1A1.0013,1.0013,0,0,1,11.93359,20.04639Zm2.04932,2.46826a1,1,0,1,1,1,1A1.0013,1.0013,0,0,1,13.98291,22.51465Zm3.12061,3.12109a1,1,0,1,1,1-1A1.00089,1.00089,0,0,1,17.10352,25.63574Zm2.94628.82471a1,1,0,1,1,1-1A1.001,1.001,0,0,1,20.0498,26.46045Zm2.89063-.76953a1,1,0,1,1,1-1A1.001,1.001,0,0,1,22.94043,25.69092Zm7.8916,3.31543L29.14941,30.689a.49392.49392,0,0,1-.39062.14649.48138.48138,0,0,1-.35645-.19141,8.39146,8.39146,0,0,1-1.15918-1.84521,7.50805,7.50805,0,0,1-.4707-2.16846,7.48638,7.48638,0,0,1,2.169.46973,8.4139,8.4139,0,0,1,1.8457,1.15918.48051.48051,0,0,1,.19141.35644A.50639.50639,0,0,1,30.832,29.00635Z"></path></svg>