<svg xmlns="http://www.w3.org/2000/svg" data-name="Layer 1" viewBox="0 0 32 32" id="matt"><path d="M26.5,0a.49971.49971,0,0,0-.5.5V2H24.90039V.5a.5.5,0,0,0-1,0V2H22.7998V.5a.5.5,0,0,0-1,0V2H20.7002V.5a.5.5,0,0,0-1,0V2H18.59961V.5a.5.5,0,0,0-1,0V2H16.5V.5a.5.5,0,0,0-1,0V2H14.3999V.5a.5.5,0,0,0-1,0V2H12.2998V.5a.5.5,0,0,0-1,0V2H10.2002V.5a.5.5,0,0,0-1,0V2H8.1001V.5a.5.5,0,1,0-1,0V2H6V.5a.5.5,0,0,0-1,0v31a.5.5,0,0,0,1,0V30H7.1001v1.5a.5.5,0,1,0,1,0V30H9.2002v1.5a.5.5,0,0,0,1,0V30h1.0996v1.5a.5.5,0,0,0,1,0V30h1.1001v1.5a.5.5,0,0,0,1,0V30H15.5v1.5a.5.5,0,0,0,1,0V30h1.09961v1.5a.5.5,0,0,0,1,0V30H19.7002v1.5a.5.5,0,0,0,1,0V30h1.0996v1.5a.5.5,0,0,0,1,0V30h1.10059v1.5a.5.5,0,0,0,1,0V30H26v1.5a.5.5,0,0,0,1,0V.5A.49971.49971,0,0,0,26.5,0ZM26,29H6V3H26ZM12.59375,17.41064v1.23047a.766.766,0,0,0,.76514.76514h1.23047l.86962.86963a.76506.76506,0,0,0,1.082,0l.87011-.86963h1.2295a.76645.76645,0,0,0,.76562-.76514V17.41016l.86719-.86768a.76331.76331,0,0,0,.002-1.0835l-.86914-.86914V13.35889a.76645.76645,0,0,0-.76562-.76514h-1.2295l-.87011-.86963a.78347.78347,0,0,0-1.082,0l-.86962.86963H13.35889a.766.766,0,0,0-.76514.76514v1.23047l-.86963.86962a.76506.76506,0,0,0,0,1.082Zm.77588-2.1831a.75971.75971,0,0,0,.22412-.541V13.59375h1.09277a.75971.75971,0,0,0,.541-.22412L16,12.59717l.77246.77246a.76055.76055,0,0,0,.541.22412h1.09277v1.09277a.75841.75841,0,0,0,.22363.541L19.40234,16l-.77246.77246a.75841.75841,0,0,0-.22363.541v1.09277H17.31348a.76055.76055,0,0,0-.541.22412L16,19.40283l-.77246-.77246a.75971.75971,0,0,0-.541-.22412H13.59375V17.31348a.75971.75971,0,0,0-.22412-.541L12.59717,16ZM8.5,27h15a.49971.49971,0,0,0,.5-.5V5.5a.49971.49971,0,0,0-.5-.5H8.5a.49971.49971,0,0,0-.5.5v21A.49971.49971,0,0,0,8.5,27ZM23,26H21a2,2,0,1,1,2-2ZM21,6h2V8a2,2,0,1,1-2-2ZM9,6h2A2,2,0,1,1,9,8Zm0,4.21973A2.98694,2.98694,0,0,0,13.21973,6h5.56054A2.98694,2.98694,0,0,0,23,10.21973V21.78027A2.98694,2.98694,0,0,0,18.78027,26H13.21973A2.98694,2.98694,0,0,0,9,21.78027ZM9,24a2,2,0,1,1,2,2H9Zm2.5,0a.5.5,0,1,0-.5.5A.5.5,0,0,0,11.5,24Zm9.5-.5a.5.5,0,1,0,.5.5A.5.5,0,0,0,21,23.5Zm-5-7a.5.5,0,1,0-.5-.5A.5.5,0,0,0,16,16.5Zm-5-8a.5.5,0,1,0-.5-.5A.5.5,0,0,0,11,8.5Zm10,0a.5.5,0,1,0-.5-.5A.5.5,0,0,0,21,8.5Z"></path></svg>