<svg xmlns="http://www.w3.org/2000/svg" data-name="Layer 1" viewBox="0 0 32 32" id="quran"><path d="M26.5 0h-19A2.503 2.503 0 0 0 5 2.5v24a2.5 2.5 0 0 0 2 2.45v2.55a.52.52 0 0 0 .24.43.51.51 0 0 0 .48.02l1.78-.89 1.78.89a.545.545 0 0 0 .22.05.594.594 0 0 0 .26-.07.52.52 0 0 0 .24-.43V29h14.5a.495.495 0 0 0 .5-.5V.5a.5.5 0 0 0-.5-.5ZM11 30.69l-1.28-.64a.509.509 0 0 0-.44 0L8 30.69V27h3ZM26 28H12v-1.5a.495.495 0 0 0-.5-.5h-4a.495.495 0 0 0-.5.5v1.41a1.495 1.495 0 0 1-1-1.41v-1A1.498 1.498 0 0 1 7.5 24H26Zm0-5H7.5a2.477 2.477 0 0 0-1.5.512V2.5A1.502 1.502 0 0 1 7.5 1H26ZM7 4.5v14a.5.5 0 0 0 .5.5A1.502 1.502 0 0 1 9 20.5a1.47 1.47 0 0 1-.21.748.5.5 0 0 0 .433.752h12.554a.5.5 0 0 0 .432-.752A1.47 1.47 0 0 1 22 20.5a1.502 1.502 0 0 1 1.5-1.5 1.473 1.473 0 0 1 .748.209.5.5 0 0 0 .752-.432V4.223a.5.5 0 0 0-.752-.432A1.473 1.473 0 0 1 23.5 4 1.502 1.502 0 0 1 22 2.5a.5.5 0 0 0-.5-.5h-12a.5.5 0 0 0-.5.5A1.502 1.502 0 0 1 7.5 4a.5.5 0 0 0-.5.5Zm1 .45A2.509 2.509 0 0 0 9.95 3h11.1a2.504 2.504 0 0 0 2.45 2 2.44 2.44 0 0 0 .5-.052v13.104a2.44 2.44 0 0 0-.5-.052 2.503 2.503 0 0 0-2.5 2.5 2.414 2.414 0 0 0 .052.5H9.948a2.414 2.414 0 0 0 .052-.5 2.505 2.505 0 0 0-2-2.45Zm7.07 12.502a5.393 5.393 0 0 0 4.484-2.376.5.5 0 0 0 .021-.533.489.489 0 0 0-.472-.248 4.443 4.443 0 0 1-4.022-6.966.5.5 0 0 0-.45-.781 5.38 5.38 0 0 0-2.304.7 5.468 5.468 0 0 0 2.744 10.204Zm-2.243-9.339a4.25 4.25 0 0 1 .898-.386 5.439 5.439 0 0 0 4.356 7.544 4.236 4.236 0 0 1-.785.585 4.47 4.47 0 0 1-4.47-7.743Zm4.785 2.384-.267 1.552a.5.5 0 0 0 .73.525l1.31-.706 1.297.73a.5.5 0 0 0 .74-.511l-.241-1.557 1.082-1.087a.5.5 0 0 0-.274-.845l-1.462-.238-.647-1.406a.5.5 0 0 0-.45-.29h-.004a.501.501 0 0 0-.45.282l-.672 1.394-1.465.208a.5.5 0 0 0-.29.842Zm1.097-1.205a.501.501 0 0 0 .38-.278l.327-.677.314.684a.498.498 0 0 0 .374.284l.763.124-.573.575a.498.498 0 0 0-.14.429l.122.79-.64-.362a.501.501 0 0 0-.484-.005l-.647.35.136-.788a.502.502 0 0 0-.132-.432l-.563-.586Z"></path></svg>